<svg width="189" height="123" viewBox="0 0 189 123" fill="none" xmlns="http://www.w3.org/2000/svg">
<path d="M103.671 5.5471C99.2835 -1.90874 88.5975 -1.83382 84.3127 5.6828L82.2662 9.2728C81.6547 10.3457 82.0151 11.7093 82.9354 12.5254C84.1828 13.6315 85.3237 15.0308 86.3505 16.6451C89.3839 21.4139 91.8326 25.0474 94.057 27.6211C96.3104 30.2283 97.9555 31.2916 99.2527 31.6056C100.375 31.8772 101.894 31.7404 104.351 30.1589C106.47 28.7949 109.006 26.5302 112.156 23.1262C112.832 22.3955 112.939 21.2984 112.433 20.4382L103.671 5.5471Z" fill="#CECAFD"/>
<path d="M125.696 42.9794C125.037 41.8588 123.587 41.537 122.464 42.1755C118.288 44.5495 114.493 45.3161 111.578 45.4263C110.704 45.4593 109.894 45.9358 109.49 46.7212C107.07 51.4222 104.091 56.3195 99.6212 59.9791C96.4622 62.5653 92.1705 65.0811 87.0313 65.5281C81.7517 65.9872 76.1135 64.2167 70.5044 59.2082C66.9655 56.0483 64.2833 52.131 62.5125 47.8439C62.138 46.9372 60.8666 46.8135 60.3814 47.6647L57.494 52.7298C53.2093 60.2464 58.4883 69.6569 67.057 69.7771L122.012 70.5475C130.788 70.6705 136.3 61.0009 131.807 53.3645L125.696 42.9794Z" fill="#CECAFD"/>
<path d="M107.444 41.5902L116.567 23.7823C119.965 19.2333 122.872 19.508 125.12 21.4219C130.082 25.6443 128.137 33.8596 122.843 37.6487C115.47 42.9259 109.25 42.0507 107.444 41.5902Z" fill="url(#paint0_linear)"/>
<path d="M83.1987 19.0028C77.9635 10.8059 72.4468 13.42 68.0904 19.985C60.5661 31.3239 62.7075 47.5008 72.854 56.5242C82.769 65.3417 91.5245 61.8108 97.1934 57.1884C102.409 52.9356 105.412 46.6544 108.376 40.5856L116.583 23.7792C100.194 42.3166 95.2723 37.907 83.1987 19.0028Z" fill="#7A46EB"/>
<path d="M83.1987 19.0028C77.9635 10.8059 72.4468 13.42 68.0904 19.985C60.5661 31.3239 62.7075 47.5008 72.854 56.5242C82.769 65.3417 91.5245 61.8108 97.1934 57.1884C102.409 52.9356 105.412 46.6544 108.376 40.5856L116.583 23.7792C100.194 42.3166 95.2723 37.907 83.1987 19.0028Z" fill="url(#paint1_radial)"/>
<path d="M11.1771 100.191C12.8242 100.191 14.2884 100.55 15.5695 101.268C16.8768 101.986 17.8964 103.05 18.6285 104.459C19.3867 105.869 19.7658 107.571 19.7658 109.565V122.53H15.3342V110.243C15.3342 108.275 14.8505 106.773 13.8831 105.736C12.9158 104.672 11.5954 104.14 9.92212 104.14C8.24883 104.14 6.91542 104.672 5.9219 105.736C4.95453 106.773 4.47084 108.275 4.47084 110.243V122.53H0V93.0106H4.47084V103.103C5.22905 102.172 6.18335 101.454 7.33375 100.949C8.51028 100.444 9.7914 100.191 11.1771 100.191Z" fill="#36196D"/>
<path d="M44.2932 111.001C44.2932 111.826 44.2409 112.57 44.1364 113.235H27.6256C27.7564 114.99 28.3969 116.4 29.5473 117.464C30.6977 118.527 32.1095 119.059 33.7828 119.059C36.1882 119.059 37.8876 118.035 38.8812 115.988H43.705C43.0513 118.009 41.8617 119.671 40.1361 120.974C38.4367 122.251 36.3189 122.889 33.7828 122.889C31.7174 122.889 29.861 122.423 28.2139 121.493C26.5929 120.535 25.3118 119.206 24.3705 117.504C23.4555 115.775 22.9979 113.78 22.9979 111.52C22.9979 109.259 23.4424 107.278 24.3313 105.576C25.2464 103.848 26.5145 102.518 28.1355 101.587C29.7826 100.656 31.6651 100.191 33.7828 100.191C35.8222 100.191 37.6393 100.643 39.2341 101.547C40.829 102.451 42.0709 103.728 42.9598 105.377C43.8488 106.999 44.2932 108.874 44.2932 111.001ZM39.6263 109.565C39.6002 107.89 39.0119 106.547 37.8615 105.536C36.7111 104.526 35.2862 104.02 33.5867 104.02C32.0442 104.02 30.7238 104.526 29.6257 105.536C28.5276 106.52 27.874 107.863 27.6648 109.565H39.6263Z" fill="#36196D"/>
<path d="M55.5561 122.889C53.8567 122.889 52.3272 122.583 50.9676 121.971C49.6342 121.333 48.5753 120.482 47.791 119.418C47.0066 118.328 46.5883 117.118 46.536 115.788H51.1637C51.2421 116.719 51.6735 117.504 52.4579 118.142C53.2684 118.753 54.275 119.059 55.4777 119.059C56.7327 119.059 57.7 118.82 58.3798 118.341C59.0857 117.836 59.4387 117.198 59.4387 116.427C59.4387 115.602 59.0465 114.99 58.2622 114.592C57.5039 114.193 56.2882 113.754 54.6149 113.275C52.9939 112.823 51.6735 112.384 50.6539 111.959C49.6342 111.533 48.7453 110.882 47.9871 110.004C47.255 109.126 46.889 107.97 46.889 106.534C46.889 105.363 47.2289 104.3 47.9086 103.342C48.5884 102.358 49.5558 101.587 50.8108 101.029C52.0919 100.47 53.556 100.191 55.2032 100.191C57.6608 100.191 59.6348 100.829 61.1251 102.106C62.6415 103.356 63.452 105.071 63.5566 107.252H59.0857C59.0073 106.268 58.6151 105.483 57.9092 104.898C57.2033 104.313 56.249 104.02 55.0463 104.02C53.8697 104.02 52.9677 104.247 52.3403 104.699C51.7128 105.151 51.399 105.749 51.399 106.494C51.399 107.079 51.6082 107.571 52.0265 107.97C52.4448 108.369 52.9547 108.688 53.556 108.927C54.1573 109.14 55.0463 109.419 56.2228 109.765C57.7915 110.19 59.0727 110.629 60.0662 111.081C61.0858 111.507 61.9617 112.145 62.6938 112.996C63.4258 113.847 63.8049 114.977 63.8311 116.387C63.8311 117.637 63.4912 118.753 62.8114 119.737C62.1317 120.721 61.1643 121.493 59.9093 122.051C58.6805 122.61 57.2294 122.889 55.5561 122.889Z" fill="#36196D"/>
<path d="M75.5251 122.889C73.8256 122.889 72.2961 122.583 70.9366 121.971C69.6032 121.333 68.5443 120.482 67.7599 119.418C66.9756 118.328 66.5572 117.118 66.505 115.788H71.1327C71.2111 116.719 71.6425 117.504 72.4269 118.142C73.2374 118.753 74.2439 119.059 75.4466 119.059C76.7016 119.059 77.669 118.82 78.3488 118.341C79.0547 117.836 79.4076 117.198 79.4076 116.427C79.4076 115.602 79.0155 114.99 78.2311 114.592C77.4729 114.193 76.2571 113.754 74.5838 113.275C72.9628 112.823 71.6425 112.384 70.6228 111.959C69.6032 111.533 68.7142 110.882 67.956 110.004C67.2239 109.126 66.8579 107.97 66.8579 106.534C66.8579 105.363 67.1978 104.3 67.8776 103.342C68.5574 102.358 69.5247 101.587 70.7797 101.029C72.0608 100.47 73.525 100.191 75.1721 100.191C77.6298 100.191 79.6037 100.829 81.094 102.106C82.6104 103.356 83.4209 105.071 83.5255 107.252H79.0547C78.9762 106.268 78.5841 105.483 77.8781 104.898C77.1722 104.313 76.2179 104.02 75.0152 104.02C73.8387 104.02 72.9367 104.247 72.3092 104.699C71.6817 105.151 71.368 105.749 71.368 106.494C71.368 107.079 71.5771 107.571 71.9955 107.97C72.4138 108.369 72.9236 108.688 73.525 108.927C74.1263 109.14 75.0152 109.419 76.1918 109.765C77.7605 110.19 79.0416 110.629 80.0351 111.081C81.0548 111.507 81.9307 112.145 82.6627 112.996C83.3948 113.847 83.7739 114.977 83.8 116.387C83.8 117.637 83.4602 118.753 82.7804 119.737C82.1006 120.721 81.1332 121.493 79.8783 122.051C78.6494 122.61 77.1984 122.889 75.5251 122.889Z" fill="#36196D"/>
<path d="M89.9251 97.6379C89.1146 97.6379 88.4348 97.3587 87.8857 96.8002C87.3367 96.2417 87.0622 95.5503 87.0622 94.7259C87.0622 93.9015 87.3367 93.21 87.8857 92.6516C88.4348 92.0931 89.1146 91.8138 89.9251 91.8138C90.7094 91.8138 91.3761 92.0931 91.9252 92.6516C92.4742 93.21 92.7488 93.9015 92.7488 94.7259C92.7488 95.5503 92.4742 96.2417 91.9252 96.8002C91.3761 97.3587 90.7094 97.6379 89.9251 97.6379ZM92.1213 100.55V122.53H87.6504V100.55H92.1213Z" fill="#36196D"/>
<path d="M95.5204 111.44C95.5204 109.233 95.9648 107.278 96.8538 105.576C97.7689 103.874 98.9977 102.558 100.54 101.627C102.109 100.67 103.835 100.191 105.717 100.191C107.416 100.191 108.894 100.537 110.149 101.228C111.43 101.893 112.449 102.731 113.208 103.741V100.55H117.718V122.53H113.208V119.259C112.449 120.296 111.417 121.16 110.109 121.852C108.802 122.543 107.312 122.889 105.639 122.889C103.782 122.889 102.083 122.41 100.54 121.453C98.9977 120.469 97.7689 119.113 96.8538 117.384C95.9648 115.629 95.5204 113.647 95.5204 111.44ZM113.208 111.52C113.208 110.004 112.894 108.688 112.266 107.571C111.665 106.454 110.868 105.603 109.874 105.018C108.881 104.433 107.809 104.14 106.658 104.14C105.508 104.14 104.436 104.433 103.442 105.018C102.449 105.576 101.638 106.414 101.011 107.531C100.41 108.621 100.109 109.924 100.109 111.44C100.109 112.956 100.41 114.286 101.011 115.429C101.638 116.573 102.449 117.45 103.442 118.062C104.462 118.647 105.534 118.94 106.658 118.94C107.809 118.94 108.881 118.647 109.874 118.062C110.868 117.477 111.665 116.626 112.266 115.509C112.894 114.365 113.208 113.036 113.208 111.52Z" fill="#36196D"/>
<path d="M133.512 100.191C135.212 100.191 136.728 100.55 138.061 101.268C139.421 101.986 140.48 103.05 141.238 104.459C141.996 105.869 142.375 107.571 142.375 109.565V122.53H137.944V110.243C137.944 108.275 137.46 106.773 136.493 105.736C135.525 104.672 134.205 104.14 132.532 104.14C130.858 104.14 129.525 104.672 128.531 105.736C127.564 106.773 127.08 108.275 127.08 110.243V122.53H122.61V100.55H127.08V103.063C127.812 102.159 128.741 101.454 129.865 100.949C131.015 100.444 132.231 100.191 133.512 100.191Z" fill="#36196D"/>
<path d="M149.925 122.889C148.938 122.889 148.121 122.579 147.472 121.959C146.849 121.311 146.537 120.516 146.537 119.572C146.537 118.628 146.849 117.846 147.472 117.226C148.121 116.579 148.938 116.256 149.925 116.256C150.885 116.256 151.677 116.579 152.3 117.226C152.923 117.846 153.234 118.628 153.234 119.572C153.234 120.516 152.923 121.311 152.3 121.959C151.677 122.579 150.885 122.889 149.925 122.889Z" fill="#5B28BB"/>
<path d="M173.316 117.226H162.492L160.701 122.606H154.977L164.75 94.3334H171.097L180.869 122.606H175.107L173.316 117.226ZM171.836 112.696L167.904 100.886L163.971 112.696H171.836Z" fill="#5B28BB"/>
<path d="M189 94.3738V122.606H183.549V94.3738H189Z" fill="#5B28BB"/>
<defs>
<linearGradient id="paint0_linear" x1="111.28" y1="28.6654" x2="122.864" y2="39.9986" gradientUnits="userSpaceOnUse">
<stop stop-color="#3A1D72"/>
<stop offset="1" stop-color="#7A46EB"/>
</linearGradient>
<radialGradient id="paint1_radial" cx="0" cy="0" r="1" gradientUnits="userSpaceOnUse" gradientTransform="translate(95.563 28.9701) rotate(122.005) scale(24.8089 25.6115)">
<stop stop-color="#D3C3F7" stop-opacity="0.5"/>
<stop offset="1" stop-color="#D3C3F7" stop-opacity="0"/>
</radialGradient>
</defs>
</svg>
